<svg xmlns="http://www.w3.org/2000/svg" viewBox="0 0 240 320"><rect width="240" height="320" fill="#0a0a14"/><path d="M0 210 L-264.0 320" stroke="#ff2e93" stroke-opacity=".5"/><path d="M24 210 L-187.20000000000005 320" stroke="#ff2e93" stroke-opacity=".5"/><path d="M48 210 L-110.4 320" stroke="#ff2e93" stroke-opacity=".5"/><path d="M72 210 L-33.60000000000002 320" stroke="#ff2e93" stroke-opacity=".5"/><path d="M96 210 L43.19999999999999 320" stroke="#ff2e93" stroke-opacity=".5"/><path d="M120 210 L120.0 320" stroke="#ff2e93" stroke-opacity=".5"/><path d="M144 210 L196.8 320" stroke="#ff2e93" stroke-opacity=".5"/><path d="M168 210 L273.6 320" stroke="#ff2e93" stroke-opacity=".5"/><path d="M192 210 L350.4 320" stroke="#ff2e93" stroke-opacity=".5"/><path d="M216 210 L427.20000000000005 320" stroke="#ff2e93" stroke-opacity=".5"/><path d="M240 210 L504.0 320" stroke="#ff2e93" stroke-opacity=".5"/><path d="M0 222 H240" stroke="#ff2e93" stroke-opacity=".45"/><path d="M0 238 H240" stroke="#ff2e93" stroke-opacity=".45"/><path d="M0 258 H240" stroke="#ff2e93" stroke-opacity=".45"/><path d="M0 284 H240" stroke="#ff2e93" stroke-opacity=".45"/><path d="M0 108h240" stroke="#ff2e93" stroke-width="2" opacity=".9"/><polygon points="60,50 80,70 60,90 40,70" fill="none" stroke="#00e5ff" stroke-width="1.5"/><polygon points="190,40 205,58 190,76 175,58" fill="none" stroke="#00e5ff" stroke-width="1.5"/><text x="120" y="150" text-anchor="middle" font-family="monospace" font-size="9" letter-spacing="2" fill="#00e5ff">// WE ARE GETTING MARRIED</text><text x="120" y="182" text-anchor="middle" font-family="Verdana,sans-serif" font-weight="bold" font-size="26" fill="#f4f4ff">RINA</text><text x="120" y="204" text-anchor="middle" font-family="sans-serif" font-size="16" fill="#ff2e93">+</text><text x="120" y="232" text-anchor="middle" font-family="Verdana,sans-serif" font-weight="bold" font-size="26" fill="#f4f4ff">DIMAS</text><rect x="84" y="272" width="72" height="22" rx="4" fill="#ff2e93"/><text x="120" y="287" text-anchor="middle" font-family="sans-serif" font-size="9" fill="#fff">Masuk</text></svg>